<mxfile host="app.diagrams.net" modified="2023-05-22T15:20:34.083Z" agent="Mozilla/5.0 (Macintosh; Intel Mac OS X 10_15_7) AppleWebKit/605.1.15 (KHTML, like Gecko) Version/15.3 Safari/605.1.15" version="21.3.2" etag="E893INfezMqv1eKY0uA8" type="github">
  <diagram name="第 1 页" id="ct1m8Uoh30FUcK927k64">
    <mxGraphModel>
      <root>
        <mxCell id="0" />
        <mxCell id="1" parent="0" />
      </root>
    </mxGraphModel>
  </diagram>
</mxfile>
